<?xml version="1.0" standalone="no"?><!DOCTYPE svg PUBLIC "-//W3C//DTD SVG 1.1//EN" "http://www.w3.org/Graphics/SVG/1.1/DTD/svg11.dtd"><svg t="1704881950013" class="icon" viewBox="0 0 1024 1024" version="1.1" xmlns="http://www.w3.org/2000/svg" p-id="4253" xmlns:xlink="http://www.w3.org/1999/xlink" width="200" height="200"><path d="M1030.029189 559.111055a464.760664 464.760664 0 0 1-464.760664 464.888945H470.725712A464.824804 464.824804 0 0 1 5.836768 559.111055V464.888945A464.888945 464.888945 0 0 1 470.725712 0h94.542813a464.824804 464.824804 0 0 1 464.760664 464.888945v94.22211z" fill="#096DD6" p-id="4254"></path><path d="M500.550955 309.476981h156.309928v36.431694H500.550955v-36.431694z m0 69.784654h156.309928v32.390855H500.550955v-32.390855z" fill="#FFFFFF" p-id="4255"></path><path d="M397.669903 826.576135H229.301597V197.231444h577.262763v629.408832H397.669903v-0.064141z m-48.04109-583.227811H277.470968v536.98265h72.157845V243.348324z m312.748137 0h-96.210461m192.420921 0H397.669903v536.98265h360.789226l0.128281-536.98265z" fill="#FCFCFC" p-id="4256"></path><path d="M716.511369 724.208205l-50.606703-50.863263a111.283433 111.283433 0 0 0-89.796429-176.642405 111.091012 111.091012 0 1 0 0 222.374444c23.02637 0 46.116881-7.119574 65.615534-21.422863l50.478421 50.734983a17.510304 17.510304 0 0 0 12.186659 4.938804 17.061322 17.061322 0 0 0 12.122518-29.1197z m-140.403132-39.382148c-20.524898 0-39.895271-8.017538-54.455121-22.577388-14.55985-14.62399-22.513248-33.801942-22.513248-54.455121s7.953398-39.76699 22.513248-54.262699a76.326965 76.326965 0 0 1 54.455121-22.577388c20.524898 0 39.831131 8.017538 54.39098 22.641528 14.62399 14.62399 22.513248 33.737801 22.513248 54.39098s-7.953398 39.831131-22.513248 54.390981c-14.55985 14.55985-33.994363 22.449107-54.39098 22.449107z" fill="#FFFFFF" p-id="4257"></path></svg>